<svg width="92" height="17" viewBox="0 0 92 17" fill="none" xmlns="http://www.w3.org/2000/svg">
<path d="M42.5234 1.05047V13.5597H39.4664V12.6465C39.127 13.0154 38.7083 13.3027 38.2418 13.4869C37.7752 13.6711 37.2729 13.7473 36.7727 13.7098C35.9741 13.7165 35.1878 13.5138 34.4924 13.1218C33.8039 12.7308 33.2395 12.1543 32.8636 11.4581C32.4482 10.6908 32.2409 9.82831 32.2622 8.95629C32.2409 8.08426 32.4482 7.2218 32.8636 6.45445C33.2392 5.7613 33.804 5.18873 34.4924 4.80323C35.1899 4.41783 35.9755 4.21958 36.7727 4.22781C37.2336 4.20368 37.6945 4.27576 38.1259 4.43945C38.5574 4.60314 38.9499 4.85485 39.2785 5.17851V1.05047H42.5234ZM38.8399 10.595C39.2216 10.1468 39.4147 9.56849 39.3787 8.98131C39.412 8.40206 39.2189 7.8325 38.8399 7.39264C38.6652 7.20337 38.4516 7.05398 38.2138 6.95467C37.9759 6.85537 37.7194 6.80848 37.4618 6.81721C37.2022 6.80831 36.9438 6.85507 36.7039 6.95433C36.464 7.0536 36.2482 7.20306 36.071 7.39264C35.6909 7.83184 35.4976 8.40188 35.5323 8.98131C35.4963 9.56849 35.6894 10.1468 36.071 10.595C36.2465 10.7875 36.4617 10.9397 36.7018 11.0412C36.9419 11.1427 37.2012 11.1911 37.4618 11.1829C37.7204 11.1901 37.9775 11.1412 38.2154 11.0397C38.4533 10.9383 38.6664 10.7865 38.8399 10.595ZM53.8747 9.80691H47.2343C47.3528 10.255 47.6342 10.643 48.0237 10.8952C48.4663 11.1566 48.9759 11.2827 49.4895 11.258C49.8779 11.266 50.2644 11.2024 50.6297 11.0703C50.9883 10.9236 51.3189 10.7163 51.6069 10.4574L53.2983 12.2087C52.7983 12.7346 52.1897 13.1457 51.5147 13.4135C50.8397 13.6814 50.1145 13.7995 49.3893 13.7598C48.4147 13.7773 47.4494 13.5674 46.5703 13.1469C45.7994 12.7687 45.1534 12.1775 44.7092 11.4435C44.265 10.7095 44.0413 9.86359 44.0645 9.00632C44.053 8.15627 44.2821 7.32023 44.7254 6.59439C45.1687 5.86855 45.8081 5.28238 46.5703 4.90331C47.352 4.5275 48.2085 4.33234 49.0761 4.33234C49.9437 4.33234 50.8002 4.5275 51.5819 4.90331C52.3149 5.2706 52.9277 5.83908 53.3484 6.54201C53.7899 7.3011 54.0152 8.16621 54 9.04385V9.83193L53.8747 9.80691ZM47.8232 6.96733C47.4807 7.26348 47.2543 7.67121 47.1842 8.11817H50.9429C50.8728 7.67121 50.6464 7.26348 50.3039 6.96733C49.9456 6.68939 49.5048 6.53852 49.051 6.53852C48.5973 6.53852 48.1565 6.68939 47.7981 6.96733H47.8232ZM56.5057 13.4596C55.8752 13.3284 55.2702 13.096 54.7141 12.7716L55.6788 10.5825C56.1388 10.8815 56.6415 11.1092 57.1698 11.258C57.7319 11.3905 58.3089 11.4494 58.8862 11.4331C59.2619 11.4508 59.6372 11.3912 59.9888 11.258C60.0835 11.2226 60.1653 11.1595 60.2235 11.0769C60.2816 10.9943 60.3133 10.8961 60.3145 10.7951C60.3145 10.595 60.1809 10.4532 59.9136 10.3698C59.5031 10.254 59.0842 10.1704 58.6607 10.1196C58.0304 10.0507 57.4063 9.93356 56.7939 9.76939C56.2848 9.62523 55.8254 9.34392 55.4658 8.95629C55.0694 8.50039 54.867 7.90784 54.902 7.30507C54.8953 6.73945 55.0808 6.18826 55.4283 5.74142C55.83 5.25041 56.3586 4.8784 56.9568 4.66563C57.7266 4.38337 58.5425 4.2476 59.3623 4.26534C60.0445 4.26503 60.7248 4.3363 61.392 4.47799C61.9455 4.57354 62.4818 4.7506 62.9832 5.00338L62.0185 7.23002C61.2106 6.78048 60.2997 6.54774 59.3749 6.55452C58.9949 6.53167 58.6144 6.59142 58.2598 6.72965C58.1622 6.76386 58.077 6.826 58.0146 6.90831C57.9522 6.99063 57.9154 7.08947 57.909 7.19249C57.909 7.40932 58.0384 7.55943 58.2974 7.64282C58.7081 7.7604 59.1268 7.84819 59.5503 7.90551C60.1847 7.99256 60.8126 8.12212 61.4296 8.2933C61.9105 8.44555 62.3426 8.72169 62.6825 9.09389C63.0706 9.54403 63.2683 10.1271 63.2338 10.7201C63.2376 11.2814 63.0523 11.8278 62.7076 12.2712C62.3017 12.7689 61.7631 13.1419 61.154 13.347C60.3497 13.6288 59.5002 13.7603 58.6482 13.7348C57.8846 13.7351 57.1236 13.6469 56.3805 13.4721L56.5057 13.4596ZM64.8751 2.92685C64.6973 2.77182 64.5567 2.57896 64.4634 2.36248C64.3702 2.14599 64.3268 1.91139 64.3363 1.67593C64.3268 1.44048 64.3702 1.20588 64.4634 0.989391C64.5567 0.772906 64.6973 0.58005 64.8751 0.425014C65.2799 0.107525 65.7905 -0.0445064 66.3034 -0.000298759C66.816 -0.023493 67.3195 0.141104 67.7191 0.462542C67.9013 0.613892 68.0451 0.806107 68.1387 1.0235C68.2324 1.2409 68.2732 1.47731 68.2579 1.71346C68.2631 1.94834 68.2178 2.1816 68.1248 2.39744C68.0319 2.61327 67.8935 2.80662 67.7191 2.96438C67.3293 3.3069 66.8222 3.48612 66.3034 3.46475C65.7864 3.48828 65.28 3.31376 64.8876 2.97689L64.8751 2.92685ZM64.6997 4.47799H67.9071V13.6347H64.6871L64.6997 4.47799ZM79.8472 4.42796V11.9335C79.897 12.6332 79.799 13.3356 79.5594 13.995C79.3198 14.6545 78.944 15.2562 78.4564 15.7613C77.3321 16.6706 75.9028 17.118 74.4597 17.0122C73.6152 17.0165 72.7734 16.9156 71.9539 16.712C71.2315 16.539 70.5475 16.2336 69.9368 15.8113L71.102 13.5597C71.523 13.8869 72.0039 14.129 72.5177 14.2727C73.0611 14.4433 73.627 14.5319 74.1966 14.5354C74.8638 14.5889 75.5265 14.3877 76.0509 13.9725C76.259 13.7535 76.4188 13.4934 76.5202 13.2091C76.6217 12.9247 76.6624 12.6223 76.6397 12.3213V12.021C76.2955 12.3913 75.8727 12.68 75.4023 12.8662C74.9319 13.0523 74.4258 13.1311 73.921 13.0968C73.135 13.1041 72.3597 12.9149 71.6658 12.5464C70.9865 12.1895 70.4187 11.6528 70.0245 10.9953C69.6068 10.2919 69.3942 9.48609 69.4105 8.66858C69.3976 7.85936 69.6101 7.06247 70.0245 6.36688C70.4187 5.70933 70.9865 5.17271 71.6658 4.81574C72.3609 4.45165 73.1361 4.26675 73.921 4.27785C74.4656 4.23244 75.013 4.323 75.5138 4.54137C76.0147 4.75973 76.4533 5.09905 76.7901 5.52877V4.42796H79.8472ZM76.101 10.0071C76.287 9.8358 76.4337 9.62638 76.531 9.39319C76.6283 9.15999 76.674 8.90853 76.6648 8.65607C76.673 8.40558 76.6269 8.15628 76.5295 7.92525C76.4322 7.69423 76.286 7.48694 76.101 7.31758C75.7061 6.96556 75.1891 6.78151 74.6602 6.80471C74.1319 6.78544 73.6163 6.96898 73.2193 7.31758C73.0326 7.49032 72.8863 7.7021 72.791 7.9378C72.6957 8.1735 72.6538 8.42731 72.6681 8.68108C72.6617 8.92949 72.7087 9.17638 72.806 9.40511C72.9032 9.63384 73.0485 9.8391 73.2319 10.0071C73.6262 10.3613 74.1425 10.5496 74.6727 10.5324C75.1992 10.5503 75.7119 10.3617 76.101 10.0071Z" fill="#333333"/>
<path opacity="0.3" d="M91.4617 7.43097C91.7318 7.91666 91.9 8.4522 91.956 9.00492C92.012 9.55764 91.9547 10.116 91.7875 10.6458L90.6097 15.7496L87.5276 15.0115L88.5926 10.4207C88.8766 9.2031 88.5299 8.48174 87.5527 8.25657C87.3144 8.19 87.0645 8.17565 86.8201 8.21451C86.5758 8.25338 86.3427 8.34454 86.1369 8.48174C85.6605 8.85844 85.3502 9.40607 85.2724 10.0079L84.2826 14.3235L81.1504 13.598L83.2051 4.62891L86.187 5.31691L85.9615 6.2551C86.398 5.97554 86.8892 5.79216 87.4023 5.71721C87.9534 5.63654 88.5147 5.66202 89.0562 5.79226C89.561 5.87486 90.0436 6.05946 90.4745 6.33479C90.9053 6.61011 91.2754 6.97035 91.5619 7.39344" fill="#333333"/>
<path d="M11.251 13.572L11.2134 6.97963L8.01852 12.3461H6.43987L3.25752 7.15476V13.572H0V1.13784H2.90671L7.27931 8.31812L11.5517 1.13784H14.4584L14.496 13.572H11.251ZM24.8198 7.09222H27.8142V12.0959C27.098 12.6006 26.3017 12.9812 25.4588 13.2217C24.5926 13.4786 23.6938 13.6092 22.7901 13.6095C21.6147 13.6293 20.4526 13.3586 19.4073 12.8214C18.4188 12.3007 17.5978 11.5114 17.0394 10.5448C16.4645 9.5764 16.1696 8.46794 16.1874 7.3424C16.1696 6.21686 16.4645 5.10841 17.0394 4.14005C17.6094 3.19388 18.4342 2.42668 19.4199 1.92592C20.4826 1.38755 21.6612 1.11699 22.8528 1.13784C23.8828 1.12156 24.9056 1.31302 25.8597 1.70075C26.7189 2.05741 27.4795 2.61516 28.0774 3.32695L25.9224 5.26587C25.5652 4.84519 25.1196 4.50828 24.6172 4.27909C24.1148 4.04991 23.568 3.9341 23.0157 3.9399C22.5568 3.91551 22.0979 3.98505 21.667 4.14423C21.2361 4.30342 20.8423 4.5489 20.5099 4.86558C20.1892 5.19556 19.9402 5.58809 19.7785 6.01859C19.6169 6.44909 19.5459 6.90829 19.5702 7.36742C19.5788 7.97793 19.7426 8.57625 20.0463 9.1062C20.3311 9.63752 20.767 10.0728 21.2992 10.3571C21.8355 10.6536 22.4403 10.8045 23.0532 10.7949C23.684 10.8005 24.3084 10.6681 24.8825 10.4072L24.8198 7.09222Z" fill="#333333"/>
</svg>
