<svg width="220" height="80" viewBox="0 0 220 80" fill="none" xmlns="http://www.w3.org/2000/svg">
<path d="M39.0908 56.5871L32.5674 44.875H35.6585L40.4541 53.5569L44.3773 44.8802H47.169L41.6911 56.7203C40.4762 59.3314 39.3473 60.0116 37.833 60.0116C37.241 60.0106 36.6547 59.8949 36.1064 59.6709V56.8861C36.5549 57.2781 37.1313 57.4913 37.7262 57.4854C38.2796 57.4854 38.7497 57.2713 39.0908 56.5871Z" fill="white"/>
<path d="M60.6419 53.3599H52.4779V59.8355H49.8125V44.875H52.4779V50.9015H60.6419V44.875H63.306V59.8355H60.6419V53.3599Z" fill="white"/>
<path d="M70.2777 56.0532L78.4196 44.875H81.3193V59.8355H78.654V48.4862L70.4691 59.8355H67.6123V44.875H70.2777V56.0532Z" fill="white"/>
<path d="M85.625 59.8355V44.875H92.1042C95.4297 44.875 97.1341 46.114 97.1341 48.5932C97.1341 50.3035 96.4518 51.4368 94.9206 52.0347C96.7539 52.3559 97.5846 53.5309 97.5846 55.4762C97.5846 58.5756 95.3711 59.8355 91.7435 59.8355H85.625ZM91.7214 51.207C93.4049 51.207 94.4714 50.4589 94.4714 49.1755C94.4714 47.9783 93.6823 47.3373 91.7852 47.3373H88.2891V51.207H91.7214ZM91.9128 57.3836C93.9596 57.3836 94.8971 56.7204 94.8971 55.2947C94.8971 53.869 93.832 53.2959 91.9557 53.2959H88.2891V57.3784L91.9128 57.3836Z" fill="white"/>
<path d="M110.565 53.3599H103.701V57.3784H111.589V59.8355H101.042V44.875H111.36V47.3321H103.701V50.9015H110.565V53.3599Z" fill="white"/>
<path d="M117.856 55.1772V59.8355H115.19V44.875H120.158C124.869 44.875 126.873 46.5631 126.873 49.9406C126.873 53.4238 124.529 55.1772 120.158 55.1772H117.856ZM117.856 47.3321V52.7188H120.349C122.823 52.7188 124.102 51.9068 124.102 49.8766C124.102 48.0384 122.993 47.3321 120.392 47.3321H117.856Z" fill="white"/>
<path d="M142.562 58.191C141.815 59.0879 139.855 60.0723 137.275 60.0723C132.414 60.0501 129.175 57.1648 129.175 52.3343C129.175 47.8249 132.373 44.6406 137.318 44.6406C139.662 44.6406 141.39 45.3665 142.266 45.9867V49.7062C141.708 48.9073 140.968 48.2535 140.108 47.7993C139.247 47.3451 138.291 47.1037 137.318 47.0951C134.063 47.0951 132.052 49.2114 132.052 52.3538C132.052 55.26 133.822 57.5473 137.261 57.6113C139.865 57.6113 141.688 56.4141 142.568 54.8971L142.562 58.191Z" fill="white"/>
<path d="M148.403 56.0532L156.545 44.875H159.444V59.8355H156.78V48.4862L148.594 59.8355H145.737V44.875H148.403V56.0532Z" fill="white"/>
<path d="M174.748 47.3321H169.718V59.8355H167.054V47.3321H162.106V44.875H174.747L174.748 47.3321Z" fill="white"/>
<path d="M186.943 53.3599H180.078V57.3784H187.965V59.8355H177.418V44.875H187.734V47.3321H180.082V50.9015H186.947L186.943 53.3599Z" fill="white"/>
<path d="M202.651 47.3321H197.621V59.8355H194.956V47.3321H190.008V44.875H202.651V47.3321Z" fill="white"/>
<path d="M72.1637 28.1134L75.5309 25.625H64.2627V40.5684H75.5309V38.0813H67.4788V34.2547H74.3473V31.7663H67.4788V28.1134H72.1637Z" fill="white"/>
<path d="M55.7568 31.4504H51.8441V28.1134H58.0941L61.4613 25.625H48.6279V40.5684H55.3428C59.1084 40.5684 61.2686 38.8581 61.2686 35.8749C61.2686 33.0223 59.3115 31.4504 55.7568 31.4504ZM55.1969 38.0813H51.8441V33.9388H55.1969C57.2386 33.9388 58.1917 34.632 58.1917 36.0094C58.1891 37.4181 57.1826 38.0813 55.1969 38.0813Z" fill="white"/>
<path d="M84.6618 25.625H78.5264V40.5684H81.7425V36.3358H84.6618C88.5771 36.3358 91.0094 34.2717 91.0094 30.9739C91.0094 27.676 88.5771 25.625 84.6618 25.625ZM84.5928 33.85H81.7425V28.1134H84.5928C86.6527 28.1134 87.7881 29.1317 87.7881 30.9856C87.7881 32.8395 86.6527 33.8474 84.5928 33.8474V33.85Z" fill="white"/>
<path d="M43.1081 37.3351C42.2557 37.7985 41.3003 38.0383 40.3307 38.0322C37.4323 38.0322 35.3281 35.9577 35.3281 33.0985C35.3281 30.2394 37.4323 28.1648 40.3307 28.1648C41.3783 28.1485 42.4035 28.4688 43.2565 29.0787L45.5625 27.3737L45.4102 27.2431C44.0638 26.0564 42.2643 25.4297 40.2018 25.4297C37.9701 25.4297 35.944 26.1843 34.4987 27.5538C33.0534 28.9234 32.2422 30.8726 32.2422 33.015C32.2422 35.1574 33.0404 37.1353 34.4909 38.5557C35.9414 39.9762 37.9648 40.766 40.181 40.766C42.5 40.766 44.5234 39.9553 45.8958 38.4813L43.8125 36.9434L43.1081 37.3351Z" fill="white"/>
<path d="M24.7953 33.0998C24.7954 32.3555 24.7291 31.6128 24.5973 30.8804L21.932 32.8504C21.932 32.9353 21.932 33.0202 21.932 33.105C21.9341 35.2405 21.2228 37.3152 19.9117 38.9982C18.6006 40.6811 16.7652 41.8753 14.6982 42.3903C12.6312 42.9053 10.4517 42.7113 8.5075 41.8394C6.56326 40.9676 4.96623 39.4679 3.97118 37.5798C2.97613 35.6917 2.64038 33.5238 3.01749 31.422C3.3946 29.3203 4.46285 27.4056 6.05182 25.9836C7.64079 24.5616 9.65895 23.7141 11.7843 23.5763C13.9097 23.4385 16.0199 24.0184 17.7783 25.2234L20.1872 23.4426C18.0017 21.6737 15.2814 20.7023 12.4727 20.6877C9.664 20.6731 6.9338 21.6162 4.73013 23.3623C2.52645 25.1084 0.980205 27.5538 0.345139 30.2971C-0.289926 33.0403 0.023914 35.9186 1.23516 38.4595C2.4464 41.0003 4.48309 43.0529 7.01099 44.2803C9.5389 45.5078 12.4079 45.8371 15.147 45.2144C17.8862 44.5916 20.3329 43.0538 22.0856 40.8532C23.8383 38.6526 24.7929 35.9199 24.7927 33.1037L24.7953 33.0998Z" fill="white"/>
<path d="M22.2122 25.5078C22.8006 26.2702 23.2983 27.0987 23.6953 27.9766L12.4167 36.3153L7.70312 33.3516V29.7861L12.4167 32.7498L22.2122 25.5078Z" fill="white"/>
</svg>
