<svg width="240" height="80" viewBox="0 0 240 80" fill="none" xmlns="http://www.w3.org/2000/svg">
<path d="M37.16 56.5819H33V60.5819H32V51.9219H33V55.6919H37.16V51.9219H38.16V60.5819H37.16V56.5819Z" fill="white"/>
<path d="M40.3298 57.4577C40.2709 56.5969 40.5189 55.743 41.0298 55.0477C41.2763 54.7635 41.5849 54.5399 41.9318 54.3943C42.2786 54.2486 42.6543 54.1848 43.0298 54.2077C43.4413 54.2012 43.8498 54.2795 44.2298 54.4377C44.563 54.5846 44.8549 54.8113 45.0798 55.0977C45.3095 55.3955 45.4793 55.7351 45.5798 56.0977C45.6876 56.5327 45.7414 56.9795 45.7398 57.4277C45.7945 58.2849 45.5468 59.1343 45.0398 59.8277C44.7918 60.1101 44.483 60.3324 44.1365 60.4779C43.79 60.6235 43.415 60.6883 43.0398 60.6677C42.6249 60.6755 42.2129 60.5972 41.8298 60.4377C41.4946 60.2941 41.202 60.0668 40.9798 59.7777C40.7485 59.4822 40.5816 59.1415 40.4898 58.7777C40.3785 58.3467 40.3247 57.9028 40.3298 57.4577ZM41.3298 57.4577C41.3273 57.7606 41.3609 58.0627 41.4298 58.3577C41.4773 58.624 41.5757 58.8787 41.7198 59.1077C41.8452 59.3231 42.0244 59.5023 42.2398 59.6277C42.4739 59.771 42.7456 59.8406 43.0198 59.8277C44.1398 59.8277 44.6998 59.0377 44.6998 57.4577C44.7015 57.1487 44.6714 56.8404 44.6098 56.5377C44.5534 56.2739 44.4555 56.0208 44.3198 55.7877C44.1889 55.5765 44.0109 55.3986 43.7998 55.2677C43.5619 55.1347 43.2922 55.069 43.0198 55.0777C41.9098 55.0677 41.3498 55.8577 41.3498 57.4577H41.3298Z" fill="white"/>
<path d="M47.7897 54.3673L48.6997 54.3073C49.0197 54.3073 49.4097 54.3073 49.8797 54.3073C50.4899 54.2576 51.1013 54.3861 51.6397 54.6773C51.8167 54.8099 51.9578 54.9844 52.0504 55.1852C52.1429 55.386 52.1839 55.6067 52.1697 55.8273C52.163 56.1278 52.0767 56.4211 51.9197 56.6773C51.72 56.9729 51.4227 57.1889 51.0797 57.2873V57.3373C51.4601 57.3857 51.8128 57.562 52.0797 57.8373C52.2888 58.1272 52.3913 58.4805 52.3697 58.8373C52.3902 59.1096 52.3369 59.3824 52.2155 59.627C52.0941 59.8716 51.909 60.079 51.6797 60.2273C51.0388 60.5589 50.3201 60.711 49.5997 60.6673C49.2597 60.6673 48.9297 60.6673 48.5997 60.6673L47.7197 60.5973L47.7897 54.3673ZM49.9897 56.9673C50.1361 56.9693 50.2816 56.9456 50.4197 56.8973C50.5574 56.8495 50.686 56.7785 50.7997 56.6873C50.9092 56.6067 51.0011 56.5046 51.0697 56.3873C51.1404 56.2767 51.1785 56.1485 51.1797 56.0173C51.1939 55.8862 51.1737 55.7536 51.1211 55.6326C51.0685 55.5116 50.9853 55.4064 50.8797 55.3273C50.5668 55.1837 50.2235 55.1185 49.8797 55.1373H49.2597H48.8197V57.0173L49.9897 56.9673ZM48.7897 59.7173H49.2497H49.7897C50.2123 59.7415 50.6345 59.6626 51.0197 59.4873C51.135 59.3979 51.2294 59.2843 51.2961 59.1546C51.3629 59.0248 51.4004 58.8821 51.4061 58.7363C51.4118 58.5905 51.3856 58.4452 51.3292 58.3107C51.2728 58.1761 51.1877 58.0555 51.0797 57.9573C50.722 57.7333 50.2997 57.6348 49.8797 57.6773H48.7897V59.7173Z" fill="white"/>
<path d="M55.4405 56.7289C55.6284 56.6908 55.8189 56.6675 56.0105 56.6589H56.5205C56.8789 56.6509 57.2364 56.6981 57.5805 56.7989C57.8355 56.8787 58.0706 57.0116 58.2705 57.1889C58.4382 57.3522 58.5621 57.5551 58.6305 57.7789C58.7074 58.011 58.7446 58.2544 58.7405 58.4989C58.7685 58.8014 58.7272 59.1063 58.6198 59.3905C58.5123 59.6746 58.3416 59.9306 58.1205 60.1389C57.526 60.5189 56.8238 60.6944 56.1205 60.6389C55.5905 60.6389 55.0505 60.6389 54.4805 60.5689V54.3789H55.4805L55.4405 56.7289ZM55.4405 59.7289C55.7278 59.7794 56.0188 59.8062 56.3105 59.8089C56.7003 59.8521 57.0916 59.7408 57.4005 59.4989C57.5089 59.387 57.5926 59.2534 57.646 59.1069C57.6994 58.9605 57.7214 58.8044 57.7105 58.6489C57.7222 58.3468 57.6144 58.0522 57.4105 57.8289C57.2648 57.7063 57.0957 57.6147 56.9135 57.5597C56.7312 57.5046 56.5396 57.4874 56.3505 57.5089H55.8905C55.7384 57.516 55.5875 57.5395 55.4405 57.5789V59.7289ZM59.7205 54.4089H60.7205V60.5989H59.7205V54.4089Z" fill="white"/>
<path d="M67.62 60.0212C67.3427 60.2332 67.0268 60.3894 66.69 60.4812C66.3052 60.6032 65.9037 60.664 65.5 60.6612C65.0786 60.669 64.6601 60.5907 64.27 60.4312C63.9332 60.2904 63.6399 60.0626 63.42 59.7712C63.1857 59.4762 63.0154 59.1357 62.92 58.7712C62.8116 58.3362 62.7578 57.8895 62.76 57.4412C62.7025 56.5759 62.9541 55.7183 63.47 55.0212C63.7198 54.7418 64.0293 54.5221 64.3755 54.3784C64.7217 54.2348 65.0957 54.1708 65.47 54.1912C65.7563 54.1904 66.0417 54.224 66.32 54.2912C66.6095 54.3493 66.8796 54.4797 67.1052 54.6703C67.3308 54.8609 67.5044 55.1054 67.61 55.3812C67.7741 55.7767 67.8492 56.2034 67.83 56.6312C67.8257 56.9361 67.7989 57.2402 67.75 57.5412H63.75C63.7444 57.8778 63.7814 58.2138 63.86 58.5412C63.9209 58.8015 64.0407 59.0444 64.21 59.2512C64.3708 59.4516 64.5811 59.6067 64.82 59.7012C65.3895 59.9017 66.0105 59.9017 66.58 59.7012C66.8104 59.6304 67.0245 59.5149 67.21 59.3612L67.62 60.0212ZM65.5 55.0212C65.0766 55.0002 64.6603 55.1355 64.33 55.4012C63.9917 55.7577 63.8022 56.2298 63.8 56.7212H66.87C66.9181 56.2518 66.7898 55.7812 66.51 55.4012C66.3723 55.282 66.2116 55.1922 66.038 55.1371C65.8643 55.0821 65.6813 55.0631 65.5 55.0812V55.0212Z" fill="white"/>
<path d="M77.3297 55.2294H75.3297V60.5494H74.3297V55.2294H72.3896V54.3594H77.2697L77.3297 55.2294Z" fill="white"/>
<path d="M78.7903 54.3604H79.4703L79.6603 55.1004H79.7103C79.8929 54.8213 80.1443 54.594 80.4403 54.4404C80.9154 54.2268 81.4436 54.1603 81.9568 54.2494C82.4701 54.3385 82.9449 54.5792 83.3203 54.9404C83.7844 55.6468 83.9991 56.488 83.9303 57.3304C83.9367 57.8086 83.8658 58.2848 83.7203 58.7404C83.5958 59.1252 83.4027 59.4844 83.1503 59.8004C82.9025 60.0839 82.5952 60.3093 82.2503 60.4604C81.8823 60.6242 81.4831 60.7061 81.0803 60.7004C80.8355 60.7061 80.5908 60.6859 80.3503 60.6404C80.1538 60.5984 79.9626 60.5347 79.7803 60.4504V63.0204H78.7803L78.7903 54.3604ZM81.2903 55.0804C80.9274 55.0612 80.5705 55.179 80.2903 55.4104C80.0214 55.6833 79.8432 56.0325 79.7803 56.4104V59.4804C79.932 59.6013 80.105 59.6929 80.2903 59.7504C80.5345 59.8173 80.7872 59.8477 81.0403 59.8404C81.3016 59.8499 81.5613 59.7967 81.7979 59.6854C82.0345 59.574 82.241 59.4078 82.4003 59.2004C82.769 58.6494 82.9448 57.9919 82.9003 57.3304C82.9036 57.0214 82.8734 56.7129 82.8103 56.4104C82.7618 56.1584 82.6668 55.9177 82.5303 55.7004C82.4077 55.5113 82.2391 55.3565 82.0403 55.2504C81.8117 55.1329 81.5573 55.0744 81.3003 55.0804H81.2903Z" fill="white"/>
<path d="M90.5099 60.021C90.2278 60.2312 89.909 60.3872 89.5699 60.481C89.1851 60.603 88.7835 60.6637 88.3799 60.661C87.9585 60.6687 87.54 60.5904 87.1499 60.431C86.8147 60.2873 86.5221 60.0601 86.2999 59.771C86.0691 59.4738 85.8992 59.1339 85.7999 58.771C85.6915 58.336 85.6377 57.8892 85.6399 57.441C85.5824 56.5757 85.834 55.718 86.3499 55.021C86.6002 54.7421 86.9097 54.5228 87.2558 54.3792C87.6019 54.2356 87.9757 54.1713 88.3499 54.191C88.6329 54.1896 88.9151 54.2232 89.1899 54.291C89.4798 54.3509 89.7504 54.4819 89.9772 54.6722C90.2041 54.8624 90.3803 55.1059 90.4899 55.3809C90.6455 55.7786 90.717 56.2042 90.6999 56.6309C90.6955 56.9358 90.6688 57.24 90.6199 57.541H86.6199C86.6143 57.8776 86.6513 58.2136 86.7299 58.541C86.7951 58.7997 86.9144 59.0417 87.0799 59.251C87.2407 59.4514 87.4509 59.6065 87.6899 59.701C88.2594 59.9015 88.8804 59.9015 89.4499 59.701C89.6802 59.6302 89.8943 59.5147 90.0799 59.361L90.5099 60.021ZM88.3799 55.021C87.9565 55 87.5402 55.1352 87.2099 55.401C86.8775 55.7612 86.6888 56.2309 86.6799 56.721H89.7899C89.838 56.2515 89.7097 55.781 89.4299 55.401C89.2874 55.2765 89.1201 55.1837 88.9392 55.1285C88.7582 55.0734 88.5676 55.0572 88.3799 55.081V55.021Z" fill="white"/>
<path d="M96.54 57.8094H93.79V60.5494H92.79V54.3594H93.79V56.9494H96.58V54.3594H97.58V60.5494H96.58L96.54 57.8094Z" fill="white"/>
<path d="M105.39 62.1216H104.72L104.54 60.5516H99.8903L99.7003 62.1216H99.0303V59.6816H99.7903C99.8928 59.5272 99.9799 59.3631 100.05 59.1916C100.187 58.8687 100.294 58.534 100.37 58.1916C100.488 57.67 100.578 57.1426 100.64 56.6116C100.73 55.8615 100.777 55.1069 100.78 54.3516H104.52V59.6716H105.42L105.39 62.1216ZM103.5 59.6816V55.2316H101.64C101.64 55.5816 101.64 55.9516 101.56 56.3616C101.48 56.7716 101.46 57.1816 101.39 57.5916C101.324 57.9801 101.234 58.3641 101.12 58.7416C101.034 59.0681 100.909 59.3836 100.75 59.6816H103.5Z" fill="white"/>
<path d="M108.1 56.7289C108.288 56.692 108.478 56.6686 108.67 56.6589H109.19C109.548 56.6517 109.906 56.6989 110.25 56.7989C110.503 56.8835 110.737 57.0159 110.94 57.1889C111.108 57.3522 111.231 57.5551 111.3 57.7789C111.372 58.0121 111.409 58.2548 111.41 58.4989C111.437 58.8022 111.394 59.1076 111.285 59.3918C111.175 59.676 111.003 59.9315 110.78 60.1389C110.187 60.5223 109.484 60.6982 108.78 60.6389C108.25 60.6389 107.7 60.6389 107.13 60.5689V54.3789H108.13L108.1 56.7289ZM108.1 59.7289C108.391 59.779 108.685 59.8058 108.98 59.8089C109.37 59.851 109.761 59.7399 110.07 59.4989C110.178 59.387 110.262 59.2534 110.315 59.1069C110.369 58.9605 110.391 58.8044 110.38 58.6489C110.392 58.3468 110.284 58.0522 110.08 57.8289C109.934 57.7073 109.764 57.6163 109.582 57.5613C109.4 57.5064 109.209 57.4885 109.02 57.5089H108.56C108.405 57.516 108.25 57.5395 108.1 57.5789V59.7289ZM112.38 54.4089H113.38V60.5989H112.38V54.4089Z" fill="white"/>
<path d="M119.56 54.368L120.47 54.308C120.79 54.308 121.18 54.308 121.65 54.308C122.26 54.2565 122.872 54.3851 123.41 54.678C123.587 54.8105 123.728 54.985 123.821 55.1858C123.913 55.3866 123.954 55.6073 123.94 55.828C123.938 56.1291 123.851 56.4236 123.69 56.678C123.49 56.9736 123.193 57.1895 122.85 57.2879V57.338C123.23 57.3863 123.583 57.5627 123.85 57.838C124.063 58.1266 124.169 58.48 124.15 58.838C124.17 59.1103 124.117 59.383 123.996 59.6276C123.874 59.8722 123.689 60.0796 123.46 60.2279C122.819 60.5596 122.1 60.7116 121.38 60.6679C121.03 60.6679 120.71 60.6679 120.38 60.6679L119.5 60.5979L119.56 54.368ZM121.79 57.018C121.94 57.0199 122.088 56.9962 122.23 56.9479C122.367 56.898 122.495 56.8272 122.61 56.738C122.719 56.6573 122.811 56.5553 122.88 56.438C122.948 56.3266 122.982 56.1982 122.98 56.0679C122.993 55.9378 122.974 55.8065 122.923 55.6859C122.873 55.5653 122.792 55.4594 122.69 55.3779C122.377 55.2355 122.034 55.1703 121.69 55.188H121.06H120.62V57.018H121.79ZM120.58 59.768H121.05H121.58C122.006 59.7934 122.432 59.7144 122.82 59.5379C122.954 59.4517 123.061 59.3308 123.132 59.1882C123.202 59.0456 123.233 58.8865 123.22 58.7279C123.223 58.5898 123.194 58.4528 123.135 58.3278C123.076 58.2028 122.989 58.0933 122.88 58.0079C122.518 57.7845 122.093 57.6862 121.67 57.7279H120.58V59.768Z" fill="white"/>
<path d="M135.12 56.8694L135.19 55.6994H135.13L134.68 56.6494L133.19 59.0794H132.84L131.28 56.6494L130.87 55.6994H130.79L130.89 56.8594V60.5494H129.98V54.3594H130.98L132.72 57.1294L133.08 57.8494L133.45 57.1094L135.07 54.3594H136.07V60.5494H135.07L135.12 56.8694Z" fill="white"/>
<path d="M143 60.021C142.72 60.2291 142.405 60.385 142.07 60.481C141.681 60.6016 141.277 60.6623 140.87 60.661C140.451 60.6702 140.036 60.5919 139.65 60.431C139.31 60.2904 139.013 60.0628 138.79 59.771C138.562 59.4731 138.396 59.1333 138.3 58.771C138.187 58.3368 138.133 57.8895 138.14 57.441C138.079 56.5769 138.327 55.7194 138.84 55.021C139.09 54.7421 139.4 54.5228 139.746 54.3792C140.092 54.2356 140.466 54.1713 140.84 54.191C141.123 54.1896 141.405 54.2232 141.68 54.291C141.955 54.3527 142.214 54.472 142.44 54.641C142.679 54.8385 142.865 55.0929 142.98 55.3809C143.135 55.7786 143.207 56.2042 143.19 56.6309C143.189 56.9356 143.166 57.2398 143.12 57.541H139.12C139.114 57.8776 139.151 58.2136 139.23 58.541C139.295 58.7997 139.414 59.0417 139.58 59.251C139.742 59.4495 139.952 59.6041 140.19 59.701C140.488 59.8083 140.803 59.8591 141.12 59.8509C141.406 59.8499 141.691 59.7991 141.96 59.701C142.19 59.6302 142.404 59.5147 142.59 59.361L143 60.021ZM140.87 55.021C140.447 55.0019 140.031 55.1369 139.7 55.401C139.365 55.759 139.179 56.2309 139.18 56.721H142.25C142.298 56.2515 142.17 55.781 141.89 55.401C141.75 55.281 141.588 55.1907 141.413 55.1357C141.237 55.0807 141.053 55.062 140.87 55.081V55.021Z" fill="white"/>
<path d="M149.04 57.8094H146.24V60.5494H145.24V54.3594H146.24V56.9494H149.04V54.3594H150.04V60.5494H149.04V57.8094Z" fill="white"/>
<path d="M156.93 60.0212C156.651 60.2313 156.336 60.3874 156 60.4812C155.615 60.6024 155.213 60.6632 154.81 60.6612C154.388 60.6698 153.97 60.5915 153.58 60.4312C153.243 60.2904 152.95 60.0626 152.73 59.7712C152.495 59.4762 152.325 59.1357 152.23 58.7712C152.117 58.3371 152.063 57.8897 152.07 57.4412C152.015 56.5747 152.27 55.7169 152.79 55.0212C153.04 54.7418 153.349 54.5221 153.695 54.3784C154.041 54.2348 154.415 54.1708 154.79 54.1912C155.073 54.1899 155.355 54.2234 155.63 54.2912C155.907 54.3476 156.167 54.4674 156.39 54.6412C156.629 54.8387 156.815 55.0932 156.93 55.3812C157.085 55.7789 157.157 56.2045 157.14 56.6312C157.139 56.9358 157.116 57.24 157.07 57.5412H153.07C153.058 57.8781 153.095 58.2148 153.18 58.5412C153.241 58.8015 153.36 59.0444 153.53 59.2512C153.691 59.4516 153.901 59.6067 154.14 59.7012C154.709 59.9017 155.33 59.9017 155.9 59.7012C156.13 59.6304 156.344 59.5149 156.53 59.3612L156.93 60.0212ZM154.81 55.0212C154.386 55.0002 153.97 55.1355 153.64 55.4012C153.301 55.7577 153.112 56.2298 153.11 56.7212H156.18C156.228 56.2518 156.1 55.7812 155.82 55.4012C155.68 55.2794 155.516 55.1881 155.338 55.133C155.161 55.0779 154.974 55.0603 154.79 55.0812L154.81 55.0212Z" fill="white"/>
<path d="M164.4 62.1216H163.73L163.54 60.5516H158.89L158.7 62.1216H158.04V59.6816H158.79C158.896 59.5295 158.984 59.365 159.05 59.1916C159.192 58.8704 159.299 58.5352 159.37 58.1916C159.487 57.67 159.577 57.1426 159.64 56.6116C159.73 55.8615 159.776 55.1069 159.78 54.3516H163.52V59.6716H164.43L164.4 62.1216ZM162.5 59.6816V55.2316H160.65C160.65 55.5816 160.6 55.9516 160.56 56.3616C160.52 56.7716 160.46 57.1816 160.39 57.5916C160.32 58.0016 160.23 58.3816 160.13 58.7416C160.04 59.0686 159.913 59.3841 159.75 59.6816H162.5Z" fill="white"/>
<path d="M168.13 57.8094L166.31 60.5494H165.17L167.17 57.7194L167.59 57.3494L166.96 56.8694L165.35 54.3594H166.4L168.11 57.0394H168.75V54.3594H169.75V57.1594L170.33 56.9894L172.05 54.3594H173.05L171.37 56.8694L170.89 57.2694L171.52 57.7694L173.35 60.5494H172.17L170.35 57.7694H169.71V60.5494H168.71V57.6394L168.13 57.8094Z" fill="white"/>
<path d="M179.86 56.8694L179.94 55.6994H179.88L179.43 56.6494L177.93 59.0794H177.59L176.03 56.6494L175.62 55.6994H175.57L175.67 56.8594V60.5494H174.79V54.3594H175.79L177.52 57.1294L177.88 57.8494L178.25 57.1094L179.87 54.3594H180.87V60.5494H179.87L179.86 56.8694Z" fill="white"/>
<path d="M187.79 60.021C187.508 60.2312 187.189 60.3872 186.85 60.481C186.465 60.603 186.064 60.6637 185.66 60.661C185.239 60.6687 184.82 60.5904 184.43 60.431C184.095 60.2873 183.802 60.0601 183.58 59.771C183.349 59.4738 183.179 59.1339 183.08 58.771C182.972 58.336 182.918 57.8892 182.92 57.441C182.863 56.5757 183.114 55.718 183.63 55.021C183.88 54.7421 184.19 54.5228 184.536 54.3792C184.882 54.2356 185.256 54.1713 185.63 54.191C185.913 54.1896 186.195 54.2232 186.47 54.291C186.76 54.3509 187.031 54.4819 187.258 54.6722C187.484 54.8624 187.661 55.1059 187.77 55.3809C187.926 55.7786 187.997 56.2042 187.98 56.6309C187.976 56.9358 187.949 57.24 187.9 57.541H183.9C183.895 57.8776 183.932 58.2136 184.01 58.541C184.075 58.7997 184.195 59.0417 184.36 59.251C184.523 59.4495 184.733 59.6041 184.97 59.701C185.265 59.8082 185.577 59.8591 185.89 59.8509C186.18 59.849 186.467 59.7983 186.74 59.701C186.97 59.6279 187.183 59.5126 187.37 59.361L187.79 60.021ZM185.66 55.021C185.237 55 184.82 55.1352 184.49 55.401C184.158 55.7612 183.969 56.2309 183.96 56.721H187.03C187.078 56.2515 186.95 55.781 186.67 55.401C186.528 55.276 186.361 55.1828 186.18 55.1276C185.999 55.0724 185.808 55.0565 185.62 55.081L185.66 55.021Z" fill="white"/>
<path d="M193.79 57.8094H190.99V60.5494H189.99V54.3594H190.99V56.9494H193.79V54.3594H194.79V60.5494H193.79V57.8094Z" fill="white"/>
<path d="M201.11 55.2294H199.17V60.5494H198.17V55.2294H196.23V54.3594H201.1L201.11 55.2294Z" fill="white"/>
<path d="M206.9 60.0212C206.622 60.2313 206.306 60.3874 205.97 60.4812C205.582 60.6033 205.177 60.664 204.77 60.6612C204.352 60.669 203.937 60.5907 203.55 60.4312C203.214 60.2904 202.92 60.0626 202.7 59.7712C202.466 59.4762 202.296 59.1357 202.2 58.7712C202.088 58.3371 202.034 57.8897 202.04 57.4412C201.989 56.5703 202.255 55.7103 202.79 55.0212C203.04 54.7418 203.35 54.5221 203.696 54.3784C204.042 54.2348 204.416 54.1708 204.79 54.1912C205.074 54.1899 205.356 54.2234 205.63 54.2912C205.907 54.3496 206.166 54.4692 206.39 54.6412C206.63 54.8387 206.815 55.0932 206.93 55.3812C207.086 55.7789 207.158 56.2045 207.14 56.6312C207.14 56.9358 207.116 57.24 207.07 57.5412H203.07C203.059 57.8781 203.096 58.2148 203.18 58.5412C203.242 58.7992 203.358 59.0412 203.52 59.2512C203.687 59.4498 203.9 59.6043 204.14 59.7012C204.71 59.9017 205.331 59.9017 205.9 59.7012C206.131 59.6304 206.345 59.5149 206.53 59.3612L206.9 60.0212ZM204.77 55.0212C204.35 55.0018 203.938 55.137 203.61 55.4012C203.272 55.7577 203.083 56.2298 203.08 56.7212H206.15C206.199 56.2518 206.07 55.7812 205.79 55.4012C205.654 55.2838 205.495 55.195 205.323 55.14C205.151 55.085 204.97 55.065 204.79 55.0812L204.77 55.0212Z" fill="white"/>
<path d="M15.9997 40.0173L17.4397 36.3073C19.1506 37.1289 21.0219 37.5626 22.9197 37.5773C25.4197 37.5773 26.5597 36.5773 26.5597 35.3373C26.5597 31.9573 16.6797 33.2773 16.6797 26.2173C16.6797 22.2173 20.4697 20.2173 24.1497 20.2173C26.4276 20.0745 28.695 20.6291 30.6497 21.8073L29.2097 25.4773C27.6824 24.7286 26.0007 24.3484 24.2997 24.3673C22.6797 24.3673 21.5597 25.1573 21.5597 26.3073C21.5597 29.0673 31.6297 28.7773 31.6297 35.1573C31.6297 39.7173 27.2697 41.6873 22.9697 41.6873C20.5282 41.7753 18.1086 41.198 15.9697 40.0173" fill="white"/>
<path d="M39.1595 28.9497V37.5397C39.8329 37.7192 40.5234 37.8265 41.2195 37.8597C43.7195 37.8597 45.1295 35.5097 45.1295 32.5097C45.1295 29.5097 44.1295 28.5597 41.5395 28.5597C40.7301 28.5574 39.9259 28.6892 39.1595 28.9497ZM34.2695 40.6297V19.1797H39.1595V25.5597C40.193 25.1311 41.3007 24.9102 42.4195 24.9097C47.2495 24.9097 50.1295 26.8297 50.1295 32.4797C50.1295 39.4197 45.7795 41.6897 41.1295 41.6897C38.798 41.7475 36.4749 41.3885 34.2695 40.6297Z" fill="white"/>
<path d="M62.4302 31.6819C62.4902 29.7419 61.6302 28.3919 60.0402 28.3919C58.4502 28.3919 57.2802 29.5619 57.1902 31.6819H62.4302ZM52.1602 33.5619C52.1602 27.0019 55.5401 24.9219 60.4001 24.9219C65.4601 24.9219 67.4602 28.2119 67.4602 33.0619V34.8319H57.0402C57.0402 37.3619 59.0402 37.8319 61.5702 37.8319C63.118 37.7682 64.6555 37.5505 66.1602 37.1819L66.9001 40.8019C64.9559 41.3993 62.9341 41.706 60.9001 41.7119C55.6001 41.7119 52.1902 39.9819 52.1902 33.5619" fill="white"/>
<path d="M70.3701 25.2993H75.2801V27.4493C76.0801 26.4493 77.5801 24.9693 79.4301 24.9693C80.1764 24.9429 80.9222 25.034 81.6401 25.2393L80.9901 29.2393C80.2835 29.0921 79.5614 29.0317 78.8401 29.0593C77.5213 29.0609 76.2511 29.5568 75.2801 30.4493V41.3293H70.3701V25.2993Z" fill="white"/>
<path d="M95.6104 39.3608L89.8504 31.0208V30.5208L95.7604 24.6408C96.0917 24.3515 96.3111 23.9552 96.3804 23.5208C96.3912 23.3298 96.347 23.1398 96.2531 22.9731C96.1592 22.8065 96.0194 22.6704 95.8504 22.5808L94.8504 22.1408C94.8664 21.6056 94.9334 21.0732 95.0504 20.5508H102.79L102.7 21.9008L93.8504 29.7908L98.2604 35.9108C99.3284 37.4872 100.596 38.919 102.03 40.1708L101.53 41.7908C99.9104 41.7908 97.0004 41.4108 95.5804 39.3508L95.6104 39.3608ZM82.1404 39.7608L83.5804 39.3208C83.9615 39.1876 84.2966 38.9484 84.5463 38.6313C84.7961 38.3142 84.9502 37.9324 84.9904 37.5308L85.9304 24.4008C85.9466 24.0254 85.8455 23.6542 85.6413 23.3389C85.437 23.0235 85.1396 22.7795 84.7904 22.6408L83.4904 22.1108C83.4776 21.583 83.5485 21.0564 83.7004 20.5508H92.6404C92.7304 21.1072 92.7304 21.6744 92.6404 22.2308L91.2304 22.6408C90.8748 22.7779 90.5689 23.0194 90.353 23.3335C90.137 23.6476 90.0211 24.0196 90.0204 24.4008L89.1104 38.1108C89.0504 38.7308 89.1704 38.9408 89.6704 39.0608L91.4904 39.5608C91.4664 40.1693 91.3587 40.7716 91.1704 41.3508H82.1104C82.0348 40.8235 82.0348 40.2881 82.1104 39.7608" fill="white"/>
<path d="M111.53 40.1781C111.553 39.6957 111.604 39.215 111.68 38.7381L112.97 28.9181C112.728 28.882 112.485 28.862 112.24 28.8581C110.85 28.9927 109.514 29.4666 108.35 30.2381L107.65 36.6181V41.3581H103.41L104.97 25.8281L108.88 24.8281L108.53 28.6481C110.38 26.6481 112.74 25.0881 114.8 25.0881C116.09 25.0881 116.85 25.5581 116.91 26.8581C116.954 27.267 116.954 27.6793 116.91 28.0881L115.5 38.4481H117.79V39.3281C116.84 40.2381 114.93 41.7381 113.05 41.7381C112.842 41.7705 112.629 41.7533 112.428 41.6879C112.228 41.6224 112.046 41.5107 111.897 41.3616C111.748 41.2125 111.636 41.0303 111.57 40.8299C111.505 40.6295 111.488 40.4165 111.52 40.2081" fill="white"/>
<path d="M128.98 30.6195C128.984 29.8636 128.934 29.1083 128.83 28.3595C128.124 27.9157 127.313 27.6704 126.48 27.6495C123.65 27.6495 123.48 32.9495 123.48 35.5095C123.48 36.7395 123.48 37.4195 123.56 38.2395C124.275 38.6262 125.076 38.8289 125.89 38.8295C128.68 38.8295 129.01 32.8295 129.01 30.6195H128.98ZM119.56 36.0195C119.56 32.0195 121.5 25.0195 127.36 25.0195C130.27 25.0195 132.83 26.7595 132.83 30.9395C132.83 35.1195 130.48 41.6995 124.59 41.6995C121.8 41.6995 119.59 40.1695 119.59 36.0295" fill="white"/>
<path d="M135.89 29.86L134.36 26.06C135.879 25.359 137.538 25.0168 139.21 25.06L140.21 38.62L144.27 30.3L143.54 25.71L147.48 25L149.1 38.48L152.01 31.21C152.211 30.7422 152.339 30.2465 152.39 29.74V25.3H156.79C156.855 25.6797 156.875 26.0656 156.85 26.45C156.85 28.18 156.23 29.5 155.29 31.5L150.49 41.3L146.08 42.1L144.9 34.27L141.4 41.27L137.22 42.18L135.89 29.86Z" fill="white"/>
<path d="M158.04 40.21C158.04 39.68 158.16 39.04 158.22 38.48L160.22 21.38H157.9V19.59C159.547 19.2476 161.22 19.0502 162.9 19C163.81 19 164.31 19.35 164.19 20.38L162.13 38.38H164.31V39.29C163.31 40.29 161.4 41.65 159.66 41.65C158.57 41.65 158.07 41.17 158.07 40.17" fill="white"/>
<path d="M174.84 29.12C174.84 27.97 174.46 27.65 173.61 27.65C171.31 27.65 170.66 30.3 170.37 33.04C173.43 32.48 174.84 31.33 174.84 29.12ZM166.28 37.18C166.28 31.83 168.1 25 175.11 25C177.81 25 179.02 26 179.02 28.24C179.02 31.68 176.22 33.83 170.31 34.89C170.31 35.39 170.25 35.89 170.25 36.36C170.25 36.83 170.25 37.59 170.25 38.1C170.645 38.2042 171.051 38.2613 171.46 38.27C173.253 38.1427 175.016 37.7448 176.69 37.09L177.49 38.68C175.302 40.519 172.574 41.5935 169.72 41.74C166.99 41.74 166.25 40.45 166.25 37.18" fill="white"/>
<path d="M185.7 37.74C186.58 37.45 187.64 36.95 188.49 36.62L189.44 28.06C188.969 27.8704 188.467 27.7719 187.96 27.77C184.67 27.77 183.96 35.15 183.96 38.01C184.544 38.1292 185.151 38.0333 185.67 37.74H185.7ZM179.96 38.21C179.96 33.39 182.37 25.09 189.11 25.09C188.64 25.09 189.58 25.09 189.76 25.09L190.17 21.38H187.82V19.59C189.427 19.2552 191.059 19.0579 192.7 19C193.7 19 194.2 19.32 194.08 20.38L192.08 38.38H194.32V39.32C193.14 40.38 191.43 41.67 189.64 41.67C188.64 41.67 188.02 41.23 188.02 40.35C188.02 40 188.14 39.2 188.26 38.26C186.58 40.06 184.99 41.7 182.55 41.7C180.67 41.7 179.93 40.7 179.93 38.17" fill="white"/>
<path d="M204.53 36.6011L205.53 28.1211C205.028 27.9018 204.488 27.7829 203.94 27.7711C200.76 27.7711 200.06 35.1811 200.06 38.0111C200.288 38.0743 200.524 38.1046 200.76 38.1011C201.85 38.1011 203.26 37.2411 204.56 36.6011H204.53ZM194.7 47.3911C194.796 46.2179 195.076 45.0672 195.53 43.9811C197.055 44.3839 198.623 44.6021 200.2 44.6311C202.53 44.6311 203.76 44.2211 204 41.7411L204.38 38.2711C202.7 40.0711 201.06 41.7411 198.64 41.7411C196.79 41.7411 196.06 40.7411 196.06 38.1211C196.06 33.3011 198.41 25.1211 205.44 25.1211C206.856 25.1266 208.254 25.4477 209.53 26.0611L208 40.5711C207.62 44.0711 203.15 48.1011 199.26 48.1011C197.721 48.0261 196.194 47.7983 194.7 47.4211" fill="white"/>
<path d="M220.18 29.12C220.18 27.97 219.8 27.65 218.94 27.65C216.65 27.65 216 30.3 215.71 33.04C218.77 32.48 220.18 31.33 220.18 29.12ZM211.62 37.18C211.62 31.83 213.44 25 220.44 25C223.15 25 224.36 26 224.36 28.24C224.36 31.68 221.56 33.83 215.65 34.89C215.65 35.39 215.59 35.89 215.59 36.36C215.59 36.83 215.59 37.59 215.59 38.1C215.982 38.2042 216.385 38.2613 216.79 38.27C218.586 38.142 220.352 37.7442 222.03 37.09L222.83 38.68C220.642 40.519 217.914 41.5935 215.06 41.74C212.32 41.74 211.59 40.45 211.59 37.18" fill="white"/>
</svg>
