<svg width="20" height="20" viewBox="0 0 20 20" fill="none" xmlns="http://www.w3.org/2000/svg">
<path fill-rule="evenodd" clip-rule="evenodd" d="M5.67 0H14.34C17.73 0 20 2.38 20 5.92V14.091C20 17.62 17.73 20 14.34 20H5.67C2.28 20 0 17.62 0 14.091V5.92C0 2.38 2.28 0 5.67 0ZM9.43043 12.9911L14.1804 8.24109C14.5204 7.90109 14.5204 7.35109 14.1804 7.00109C13.8404 6.66109 13.2804 6.66109 12.9404 7.00109L8.81043 11.1311L7.06043 9.38109C6.72043 9.04109 6.16043 9.04109 5.82043 9.38109C5.48043 9.72109 5.48043 10.2711 5.82043 10.6211L8.20043 12.9911C8.37043 13.1611 8.59043 13.2411 8.81043 13.2411C9.04043 13.2411 9.26043 13.1611 9.43043 12.9911Z" fill="#E8E8E8"/>
</svg>
