<svg width="20" height="20" viewBox="0 0 20 20" fill="none" xmlns="http://www.w3.org/2000/svg">
<path opacity="0.8" fill-rule="evenodd" clip-rule="evenodd" d="M5.34444 0H14.6567C18.0889 0 20 1.78 20 4.83V15.16C20 18.26 18.0889 20 14.6567 20H5.34444C1.96667 20 0 18.26 0 15.16V4.83C0 1.78 1.96667 0 5.34444 0ZM12.7611 10.6253C12.7863 10.5972 12.8056 10.5756 12.8154 10.5655C12.9362 10.405 13 10.208 13 9.9965C13 9.807 12.9435 9.6175 12.8295 9.4645C12.7565 9.358 12.5884 9.1875 12.5884 9.1875C11.9917 8.524 10.5071 7.5255 9.75451 7.2045C9.75451 7.1975 9.30687 7.0075 9.09401 7H9.06576C8.73892 7 8.43351 7.19 8.27715 7.496C8.21337 7.62134 8.15367 7.92673 8.1246 8.07544C8.11482 8.12545 8.10851 8.15774 8.10667 8.1595C8.04286 8.5965 8 9.2675 8 10.004C8 10.777 8.04286 11.4765 8.1208 11.907C8.1208 11.914 8.19873 12.3075 8.2489 12.439C8.32684 12.6285 8.46907 12.789 8.64637 12.891C8.7886 12.964 8.93765 13 9.09401 13C9.25718 12.993 9.56259 12.884 9.68339 12.8325C10.4788 12.512 11.9985 11.462 12.5811 10.8205C12.6459 10.754 12.7138 10.6781 12.7611 10.6253Z" fill="#E2E2E2"/>
</svg>
