<svg width="20" height="20" viewBox="0 0 20 20" fill="none" xmlns="http://www.w3.org/2000/svg">
<path opacity="0.8" fill-rule="evenodd" clip-rule="evenodd" d="M5.34444 0H14.6567C18.0889 0 20 1.78 20 4.83V15.16C20 18.26 18.0889 20 14.6567 20H5.34444C1.96667 20 0 18.26 0 15.16V4.83C0 1.78 1.96667 0 5.34444 0ZM5 4C4.44772 4 4 4.44772 4 5C4 5.55228 4.44772 6 5 6H12C12.5523 6 13 5.55228 13 5C13 4.44772 12.5523 4 12 4H5ZM4 11C4 10.4477 4.44772 10 5 10H15C15.5523 10 16 10.4477 16 11C16 11.5523 15.5523 12 15 12H5C4.44771 12 4 11.5523 4 11ZM5 14C4.44772 14 4 14.4477 4 15C4 15.5523 4.44771 16 5 16H15C15.5523 16 16 15.5523 16 15C16 14.4477 15.5523 14 15 14H5Z" fill="#E2E2E2"/>
</svg>
